<svg xmlns="http://www.w3.org/2000/svg" width="32" height="32">
<path style="fill:#f55f4b; stroke:none;" d="M0 0L0 32L16 32L16 26C4.21221 21.99 4.21221 10.01 16 6L16 0L0 0z"/>
<path style="fill:#118686; stroke:none;" d="M16 0L16 6C27.5927 9.94406 27.5927 22.0559 16 26L16 32L32 32L32 0L16 0z"/>
<path style="fill:#fab4aa; stroke:none;" d="M13 6L13 7L16 7L13 6z"/>
<path style="fill:#99cbcb; stroke:none;" d="M16 6L16 7L19 7L16 6z"/>
<path style="fill:#fab4aa; stroke:none;" d="M11 7L12 8L11 7z"/>
<path style="fill:#fafaf9; stroke:none;" d="M12.044 7.74228C1.36882 12.0734 8.89541 28.7452 19.956 24.2577C30.6312 19.9266 23.1046 3.25477 12.044 7.74228z"/>
<path style="fill:#99cbcb; stroke:none;" d="M20 7L21 8L20 7M12 8L13 9L12 8z"/>
<path style="fill:#118686; stroke:none;" d="M13.044 8.75772C3.69647 12.2715 9.45375 27.087 18.8951 22.9869C27.8851 19.0827 22.0652 5.36662 13.044 8.75772z"/>
<path style="fill:#99cbcb; stroke:none;" d="M18.6667 8.33333L19.3333 8.66667L18.6667 8.33333M15.6667 9.33333L16.3333 9.66667L15.6667 9.33333M20 9L21 10L20 9M12 10L10 13L12 10z"/>
<path style="fill:#fafaf9; stroke:none;" d="M13.1481 11.0324C6.75028 14.6822 12.4323 24.6297 18.8519 20.9676C25.2497 17.3178 19.5677 7.37026 13.1481 11.0324z"/>
<path style="fill:#99cbcb; stroke:none;" d="M19 10L20 11L19 10z"/>
<path style="fill:#fab4aa; stroke:none;" d="M7 11L8 12L7 11z"/>
<path style="fill:#99cbcb; stroke:none;" d="M20 11L21 12L20 11M22 11L23 12L22 11M24 11L25 12L24 11M8 12L9 13L8 12M21 12L22 13L21 12z"/>
<path style="fill:#fab4aa; stroke:none;" d="M6 13L6 19L7 19L6 13M18 13L19 14L18 13z"/>
<path style="fill:#f55f4b; stroke:none;" d="M19 13C18.3706 17.0027 17.087 18.5995 13 19L13 20C17.9422 20.6337 21.0293 18.0168 19 13z"/>
<path style="fill:#99cbcb; stroke:none;" d="M23 13L24 14L23 13M9 14L9 18L10 18L9 14z"/>
<path style="fill:#fab4aa; stroke:none;" d="M20 14L20 18L21 18L20 14z"/>
<path style="fill:#99cbcb; stroke:none;" d="M25 14L25 18L26 18L25 14M22.3333 15.6667L22.6667 16.3333L22.3333 15.6667z"/>
<path style="fill:#fab4aa; stroke:none;" d="M13 18L14 19L13 18z"/>
<path style="fill:#99cbcb; stroke:none;" d="M23 18L24 19L23 18M8 19L9 20L8 19M10 19L11 20L10 19z"/>
<path style="fill:#fab4aa; stroke:none;" d="M15.6667 19.3333L16.3333 19.6667L15.6667 19.3333M19 19L20 20L19 19z"/>
<path style="fill:#99cbcb; stroke:none;" d="M21 19L22 20L21 19z"/>
<path style="fill:#fab4aa; stroke:none;" d="M7 20L8 21L7 20z"/>
<path style="fill:#99cbcb; stroke:none;" d="M11 20L12 21L11 20z"/>
<path style="fill:#fab4aa; stroke:none;" d="M14 20L15 21L14 20M17 20L18 21L17 20z"/>
<path style="fill:#99cbcb; stroke:none;" d="M20 20L21 21L20 20M22 20L23 21L22 20M24 20L25 21L24 20M12 21L13 22L12 21M19 21L20 22L19 21M15.6667 22.3333L16.3333 22.6667L15.6667 22.3333M20 22L21 23L20 22M12 23L13 24L12 23M18.6667 23.3333L19.3333 23.6667L18.6667 23.3333z"/>
<path style="fill:#fab4aa; stroke:none;" d="M11 24L12 25L11 24z"/>
<path style="fill:#99cbcb; stroke:none;" d="M20 24L21 25L20 24z"/>
<path style="fill:#fab4aa; stroke:none;" d="M13 25L13 26L16 26L13 25z"/>
<path style="fill:#99cbcb; stroke:none;" d="M16 25L16 26L19 26L16 25z"/>
</svg>
