<svg xmlns="http://www.w3.org/2000/svg" xmlns:xlink="http://www.w3.org/1999/xlink" viewBox="0 0 226.29 134.01"><defs><style>.cls-1{fill:url(#linear-gradient);}.cls-2{fill:url(#linear-gradient-2);}.cls-3{fill:url(#linear-gradient-3);}.cls-4{fill:url(#linear-gradient-4);}.cls-5{fill:#231f20;}</style><linearGradient id="linear-gradient" x1="195.21" x2="195.21" y2="101.3" gradientUnits="userSpaceOnUse"><stop offset="0" stop-color="#91d0b1"/><stop offset="1" stop-color="#5bc4be"/></linearGradient><linearGradient id="linear-gradient-2" x1="139.99" x2="139.99" y2="101.22" gradientUnits="userSpaceOnUse"><stop offset="0" stop-color="#fbf27e"/><stop offset="1" stop-color="#ffc53f"/></linearGradient><linearGradient id="linear-gradient-3" x1="84.82" y1="1.09" x2="84.82" y2="97.84" gradientUnits="userSpaceOnUse"><stop offset="0" stop-color="#f48586"/><stop offset="1" stop-color="#ef4870"/></linearGradient><linearGradient id="linear-gradient-4" x1="29.89" y1="6.14" x2="29.89" y2="99.09" gradientUnits="userSpaceOnUse"><stop offset="0" stop-color="#21b9de"/><stop offset="1" stop-color="#1c6dab"/></linearGradient></defs><title>logoAsset 3-Preview</title><g id="Layer_2" data-name="Layer 2"><g id="Layer_1-2" data-name="Layer 1"><path class="cls-1" d="M225,24.2v77.1H206V32.62c0-1.33-.11-2.46-.2-3.4v-.83c-1.63-14.15-22.45-14.29-22.45-14.29H174A35.22,35.22,0,0,0,168.16,3a33.34,33.34,0,0,0-2.69-3h40.32C216.08,1.85,224.09,11.82,225,24.2Z"/><path class="cls-2" d="M169,21.89a29.34,29.34,0,0,0-2.2-7.79,24.62,24.62,0,0,0-9.69-11.27A20,20,0,0,0,153,.94a18,18,0,0,0-2.43-.61c-.46-.08-.93-.15-1.4-.21a18.28,18.28,0,0,0-2-.12h-36.5a31.37,31.37,0,0,1,2.54,2.83,36.05,36.05,0,0,1,6,11.27h9.6l.06,0c.44,0,.89,0,1.37.08h0C146.52,15.7,149.47,24,149.47,24s.68.85,1.05,4.83l.21,21.68s.09,1.43,0,3a14.84,14.84,0,0,1-1.29,6.14s-2.95,8.34-19.24,9.82c2,5.16,5.58,11,10.79,17.46l11.29,14.23h16.2L152.6,81.33l6.08-2.92,4.94-4.52q5.63-8.23,5.63-20.72V28.32c.05-.72.09-1.44.09-2.18s0-1.46-.09-2.18S169.12,22.57,169,21.89Z"/><path class="cls-3" d="M113.34,18a28.93,28.93,0,0,0-1.4-3.89,25.93,25.93,0,0,0-7.31-9.73,22.31,22.31,0,0,0-4.5-2.82,20.28,20.28,0,0,0-4-1.37c-.28-.07-.57-.13-.86-.18h-40a33.34,33.34,0,0,1,2.69,3A35.22,35.22,0,0,1,63.8,14.1h9s20.83.14,22.45,14.29v.83c.09.94.16,2.07.21,3.4V101.3h19V24.2c0-.78-.14-1.55-.25-2.31A29,29,0,0,0,113.34,18Z"/><path class="cls-4" d="M58.79,21.89A30.61,30.61,0,0,0,58,18a30.34,30.34,0,0,0-1.39-3.89A24.44,24.44,0,0,0,46.53,2.61,20,20,0,0,0,42.38.83a21.37,21.37,0,0,0-2.1-.5c-.56-.1-1.13-.19-1.71-.24A15.25,15.25,0,0,0,36.91,0H.68V14.1H18.53l.06,0c.44,0,.89,0,1.37.08h0C36.28,15.7,39.23,24,39.23,24s.68.85,1.05,4.83l.21,21.68a29.94,29.94,0,0,1,0,3,14.84,14.84,0,0,1-1.29,6.14S36.28,68.05,20,69.53c2,5.16,5.58,11,10.79,17.46l11.29,14.23H58.28L42.37,81.33l6.07-2.92,4.94-4.52Q59,65.66,59,53.17V28.32c.05-.72.09-1.44.09-2.18s0-1.46-.09-2.18S58.88,22.57,58.79,21.89Z"/><path class="cls-5" d="M11.47,134,8,129H4.17v5H0V116H7.79c4.81,0,7.82,2.49,7.82,6.53a5.85,5.85,0,0,1-3.71,5.68l4,5.79Zm-3.91-14.6H4.17v6.27H7.56c2.54,0,3.83-1.18,3.83-3.14S10.1,119.41,7.56,119.41Z"/><path class="cls-5" d="M43.6,130.15H35.24L33.65,134H29.38l8-18h4.12l8,18H45.19ZM42.29,127l-2.86-6.89L36.58,127Z"/><path class="cls-5" d="M75.76,134l-3.47-5H68.46v5H64.29V116h7.79c4.81,0,7.82,2.49,7.82,6.53a5.85,5.85,0,0,1-3.71,5.68l4,5.79Zm-3.91-14.6H68.46v6.27h3.39c2.54,0,3.83-1.18,3.83-3.14S74.39,119.41,71.85,119.41Z"/><path class="cls-5" d="M107.89,130.15H99.53L97.94,134H93.67l8-18h4.12l8,18h-4.37ZM106.58,127l-2.86-6.89L100.87,127Z"/><path class="cls-5" d="M148.71,116h4.16v14.61h9V134H148.71Z"/><path class="cls-5" d="M189.09,130.15h-8.35l-1.6,3.86h-4.27l8-18H187l8.05,18h-4.37ZM187.78,127l-2.85-6.89L182.07,127Z"/><path class="cls-5" d="M226.29,129.1c0,3.11-2.47,4.91-7.2,4.91h-9.31V116h8.8c4.5,0,6.81,1.88,6.81,4.68a4.33,4.33,0,0,1-2.39,4A4.44,4.44,0,0,1,226.29,129.1Zm-12.37-9.95v4.24h4.14c2,0,3.14-.72,3.14-2.13s-1.11-2.11-3.14-2.11Zm8.18,9.51c0-1.52-1.16-2.24-3.32-2.24h-4.86v4.45h4.86C220.94,130.87,222.1,130.2,222.1,128.66Z"/></g></g></svg>
